<svg xmlns="http://www.w3.org/2000/svg" version="1.1" viewBox="-5.0 -10.0 110.0 135.0">
 <path d="m76.961 24.609c-0.03125-0.17188-0.10156-0.32812-0.17188-0.48047-0.019531-0.039062-0.039062-0.078125-0.058593-0.12109-0.089844-0.14844-0.19141-0.30078-0.30859-0.42187l-20.012-19.996c-0.12891-0.12891-0.26953-0.23047-0.42188-0.30859-0.039062-0.019531-0.078125-0.039062-0.12109-0.058594-0.14844-0.078125-0.30859-0.14062-0.48047-0.17188-0.12891-0.019531-0.25-0.039062-0.37891-0.039062h-46.008c-3.3086 0-6 2.6914-6 6v82c0 3.3086 2.6914 6 6 6h62c3.3086 0 6-2.6914 6-6v-66.012c0-0.12891-0.011719-0.26172-0.039062-0.39062zm-6.7891-1.6094h-11.172c-1.1016 0-2-0.89844-2-2v-11.172zm0.82812 70h-62c-1.1016 0-2-0.89844-2-2v-82c0-1.1016 0.89844-2 2-2h44v14c0 3.3086 2.6914 6 6 6h14v64c0 1.1016-0.89844 2-2 2z"/>
 <path d="m90 3c-3.8594 0-7 3.1406-7 7v75c0 0.14062 0.019531 0.28125 0.039062 0.41016v0.019532c0.03125 0.14844 0.078126 0.28906 0.14844 0.42187 0 0.019532 0 0.03125 0.019531 0.050782l5 10c0.33984 0.67969 1.0312 1.1094 1.7891 1.1094 0.76172 0 1.4492-0.42969 1.7891-1.1094l5-10s0-0.03125 0.019532-0.050782c0.058593-0.12891 0.10937-0.26953 0.14844-0.42187v-0.019532c0.03125-0.12891 0.039063-0.26953 0.039063-0.41016l0.007812-75c0-3.8594-3.1406-7-7-7zm-3 14h6v66h-6zm0-7c0-1.6484 1.3516-3 3-3s3 1.3516 3 3v3h-6zm3 80.531-1.7617-3.5312h3.5312l-1.7617 3.5312z"/>
 <path d="m15 17h30c1.1016 0 2-0.89844 2-2s-0.89844-2-2-2h-30c-1.1016 0-2 0.89844-2 2s0.89844 2 2 2z"/>
 <path d="m15 27h30c1.1016 0 2-0.89844 2-2s-0.89844-2-2-2h-30c-1.1016 0-2 0.89844-2 2s0.89844 2 2 2z"/>
 <path d="m65 33h-50c-1.1016 0-2 0.89844-2 2s0.89844 2 2 2h50c1.1016 0 2-0.89844 2-2s-0.89844-2-2-2z"/>
 <path d="m65 43h-50c-1.1016 0-2 0.89844-2 2s0.89844 2 2 2h50c1.1016 0 2-0.89844 2-2s-0.89844-2-2-2z"/>
 <path d="m65 53h-50c-1.1016 0-2 0.89844-2 2s0.89844 2 2 2h50c1.1016 0 2-0.89844 2-2s-0.89844-2-2-2z"/>
 <path d="m65 63h-50c-1.1016 0-2 0.89844-2 2s0.89844 2 2 2h50c1.1016 0 2-0.89844 2-2s-0.89844-2-2-2z"/>
 <path d="m38.59 78.59c-2.4297 2.4297-5.3984 4.1484-6.1211 3.8516 0 0-0.46094-0.44141-0.46094-2.4297 0-3.3203-1.4492-4.6211-2.6602-5.1211-4.5-1.8594-12.512 5.4688-15.75 8.7109-0.78125 0.78125-0.78125 2.0508 0 2.8281 0.39062 0.39062 0.89844 0.58984 1.4102 0.58984 0.51172 0 1.0195-0.19922 1.4102-0.58984 4.5-4.5 10.039-8.3203 11.34-7.8711 0 0 0.25 0.32031 0.25 1.4609 0 3.2617 0.98047 5.3203 2.9219 6.1211 3.7891 1.5703 8.9883-3.2109 10.488-4.7109 0.78125-0.78125 0.78125-2.0508 0-2.8281-0.78125-0.78125-2.0508-0.78125-2.8281 0z"/>
</svg>