<svg data-v-0dd9719b="" version="1.0" xmlns="http://www.w3.org/2000/svg" xmlns:xlink="http://www.w3.org/1999/xlink" width="100%" height="100%" viewBox="0 0 340.000000 250.000000" preserveAspectRatio="xMidYMid meet" color-interpolation-filters="sRGB" style="margin: auto;"> <rect data-v-0dd9719b="" x="0" y="0" width="100%" height="100%" fill="#ffffff" fill-opacity="1" class="background"></rect> <rect data-v-0dd9719b="" x="0" y="0" width="100%" height="100%" fill="url(#watermark)" fill-opacity="1" class="watermarklayer"></rect> <g data-v-0dd9719b="" class="iconmbgsvg" transform="translate(80.82500457763672,83.74768829345703)"><g fill="#000000" hollow-target="textNormalTran"><g opacity="0.55" transform="translate(32.92499542236328,0)"><g><rect fill="#000000" fill-opacity="0" stroke-width="2" x="0" y="0" width="112.5" height="82.50462025873448" class="image-rect"></rect> <svg x="0" y="0" width="112.5" height="82.50462025873448" filtersec="colorsb5067969118" class="image-svg-svg primary" style="overflow: visible;"><svg xmlns="http://www.w3.org/2000/svg" viewBox="-0.0005994163220748305 -0.001854962669312954 74.55284118652344 54.675052642822266"><title>资源 6</title><g id="图层_2" data-name="图层 2"><g id="Layer_1" data-name="Layer 1"><path d="M43.53,24.71l.32-.59a12,12,0,0,1,2.51-3.57,5.26,5.26,0,0,1,2.86-1.12,5.46,5.46,0,0,1,3.06.68,5.64,5.64,0,0,1,2.21,2.23,5.22,5.22,0,0,1,.57,3,5.94,5.94,0,0,1-.21,1q-.1.3-.24.6l-8.23,14.9a24.75,24.75,0,0,1-2.76,4,24.83,24.83,0,0,1-12.15,7.83,24.14,24.14,0,0,1-7.28,1,25.43,25.43,0,0,1-7.35-1.22,26.16,26.16,0,0,1-4.16-1.75A26.55,26.55,0,0,1,9,49.11a25.27,25.27,0,0,1-4.94-5.58A24.61,24.61,0,0,1,1,36.85,25.28,25.28,0,0,1,.09,32,24.72,24.72,0,0,1,1.16,22.4a25.35,25.35,0,0,1,1.93-4.47L11.34,3a4.82,4.82,0,0,1,.38-.51,4.51,4.51,0,0,1,.74-.71A5.17,5.17,0,0,1,15.32.68a5.49,5.49,0,0,1,3.06.69,5.4,5.4,0,0,1,2.2,2.22,5.22,5.22,0,0,1,.58,3,12.08,12.08,0,0,1-1.69,4l-.33.59L12.46,23.29a13.83,13.83,0,0,0-1.66,5.2A13.82,13.82,0,0,0,11.27,34,13.82,13.82,0,0,0,13,37.72a14.7,14.7,0,0,0,2.79,3.15,15.85,15.85,0,0,0,2.08,1.46,15.13,15.13,0,0,0,2.35,1,14,14,0,0,0,8.25.16,14.52,14.52,0,0,0,2.57-1A13.18,13.18,0,0,0,33.34,41a14.13,14.13,0,0,0,2-1.9,14.33,14.33,0,0,0,1.55-2.26l6.67-12.08Z" fill="#08cfe8"></path><path d="M31,30l-.32.59a11.91,11.91,0,0,1-2.51,3.57,5.15,5.15,0,0,1-2.86,1.12,5.54,5.54,0,0,1-5.26-2.91,5.11,5.11,0,0,1-.58-3,5,5,0,0,1,.22-1,4.92,4.92,0,0,1,.23-.6l8.23-14.9a24.73,24.73,0,0,1,6.25-7.4A25.22,25.22,0,0,1,43.08,1a24.86,24.86,0,0,1,7.29-1,25.78,25.78,0,0,1,7.34,1.23A26.16,26.16,0,0,1,61.87,3a25.81,25.81,0,0,1,8.64,8.16,24.79,24.79,0,0,1,3.06,6.69,25.18,25.18,0,0,1,.89,4.81,24.8,24.8,0,0,1-1.07,9.64,25.35,25.35,0,0,1-1.93,4.47L63.21,51.64a3.85,3.85,0,0,1-.38.52,5.44,5.44,0,0,1-.73.71A5.21,5.21,0,0,1,59.23,54,5.54,5.54,0,0,1,54,51.08a5.19,5.19,0,0,1-.58-3,12,12,0,0,1,1.7-4l.32-.59L62.1,31.39a14.05,14.05,0,0,0,1.65-5.2,14.88,14.88,0,0,0,0-2.75A14.28,14.28,0,0,0,61.56,17a14.65,14.65,0,0,0-2.79-3.14,15,15,0,0,0-2.08-1.46,14.26,14.26,0,0,0-2.35-1,14.48,14.48,0,0,0-4.14-.69,14.08,14.08,0,0,0-4.11.54,14.85,14.85,0,0,0-2.56,1,13.65,13.65,0,0,0-4.28,3.4,13.93,13.93,0,0,0-1.56,2.26L31,30Z" fill="#006dca"></path></g></g></svg></svg> <!----></g></g> <g transform="translate(0,25.98231029510498)"><g data-gra="path-name" fill-rule="" class="tp-name"><g transform="scale(1)"><g><path d="M10.71-9.69C12.09-9.36 13.14-8.21 13.14-6.73 13.14-5.03 11.73-3.61 10.02-3.61L4.93-3.61 4.6-5.58 1.64-5.58 1.64 0 10.25 0C14.03 0 17.08-3.02 17.08-6.8 17.08-10.02 14.85-12.71 11.82-13.37L6.57-14.52C5.68-14.72 4.93-15.47 4.93-16.42L4.93-17.41C4.93-18.49 5.75-19.38 7.13-19.38L12.48-19.38 12.81-17.41 15.77-17.41 15.77-22.99 7.13-22.99C3.71-22.99 0.99-20.3 0.99-16.92 0.99-13.86 2.96-11.43 5.58-10.84ZM28.58 1.31C28.58 2.82 27.43 3.94 25.95 3.94L21.68 3.94 21.68 7.55 25.95 7.55C29.56 7.55 32.52 4.93 32.52 1.31L32.52-13.14 34.49-13.47 34.49-16.42 26.61-16.42 26.61-13.47 28.58-13.14 28.58-6.08C28.58-4.6 27.43-3.61 25.95-3.61L24.8-3.61C24.14-3.61 23.65-4.11 23.65-4.76L23.65-13.14 25.62-13.47 25.62-16.42 17.74-16.42 17.74-13.47 19.71-13.14 19.71-4.76C19.71-2.1 21.68 0 24.31 0L25.78 0C26.8 0 27.85-0.36 28.58-0.82ZM59.45-11.82C59.45-14.45 57.22-16.42 54.53-16.42L53.21-16.42C51.73-16.42 50.42-16.09 49.27-15.11 48.28-16.09 47.17-16.42 45.66-16.42L44.34-16.42C43.19-16.42 42.04-15.93 41.39-15.44L40.73-16.42 35.8-16.42 35.8-13.47 37.77-13.14 37.77-3.28 35.8-2.96 35.8 0 43.69 0 43.69-2.96 41.72-3.28 41.72-10.35C41.72-11.82 42.86-12.81 44.34-12.81L45.33-12.81C46.08-12.81 46.64-12.15 46.64-11.5L46.64-3.28 44.67-2.96 44.67 0 52.55 0 52.55-2.96 50.58-3.28 50.58-10.35C50.58-11.82 51.77-12.81 53.21-12.81L54.2-12.81C55.02-12.81 55.51-12.15 55.51-11.5L55.51-3.28 53.54-2.96 53.54 0 61.42 0 61.42-2.96 59.45-3.28ZM61.75-13.47L63.72-13.14 63.72 4.27 61.75 4.6 61.75 7.55 69.64 7.55 69.64 4.6 67.66 4.27 67.66 0 69.96 0C73.58 0 76.53-2.63 76.53-6.24L76.53-11.5C76.53-14.12 74.56-16.42 71.61-16.42L61.75-16.42ZM72.59-6.24C72.59-4.73 71.61-3.61 69.96-3.61L67.66-3.61 67.66-12.81 71.28-12.81C72.1-12.81 72.59-12.19 72.59-11.5ZM80.15-13.14L80.15-5.09C80.15-2.3 82.28 0 85.07 0L87.7 0 87.7-3.61 85.57-3.61C84.74-3.61 84.09-4.27 84.09-5.09L84.09-12.81 87.37-13.14 87.37-16.42 84.09-16.42 84.09-22.99 80.51-22.99 80.15-16.42 78.18-16.42 78.18-13.47ZM97.23 0C100.18 0 102.48-2.46 102.48-5.42L102.48-11.66C102.48-14.32 100.54-16.42 97.88-16.42L93.94-16.42C91.28-16.42 89.34-14.32 89.34-11.66L89.34-5.42C89.34-2.46 91.64 0 94.6 0ZM94.93-3.61C93.94-3.61 93.28-4.27 93.28-5.26L93.28-11.66C93.28-12.32 93.78-12.81 94.43-12.81L97.39-12.81C98.05-12.81 98.54-12.32 98.54-11.66L98.54-5.26C98.54-4.27 97.88-3.61 96.9-3.61ZM116.61-20.04L118.58-19.71 118.58-14.12 110.36-14.12 110.36-19.71 112.34-20.04 112.34-22.99 104.45-22.99 104.45-20.04 106.42-19.71 106.42-3.28 104.45-2.96 104.45 0 112.34 0 112.34-2.96 110.36-3.28 110.36-10.51 118.58-10.51 118.58-3.28 116.61-2.96 116.61 0 124.49 0 124.49-2.96 122.52-3.28 122.52-19.71 124.49-20.04 124.49-22.99 116.61-22.99ZM125.8-20.04L127.77-19.71 127.77-3.28 125.8-2.96 125.8 0 141.9 0 141.9-5.91 138.94-5.91 138.61-3.61 131.72-3.61 131.72-10.51 137.3-10.51 137.63-8.54 140.58-8.54 140.58-15.44 137.63-15.44 137.3-14.12 131.72-14.12 131.72-19.38 138.61-19.38 138.94-17.41 141.9-17.41 141.9-22.99 125.8-22.99ZM149.45-3.28L152.57-8.15 155.69-3.28 154.05-2.96 154.05 0 161.93 0 161.93-2.96 159.96-3.28 154.71-11.5 159.96-19.71 161.93-20.04 161.93-22.99 154.05-22.99 154.05-20.04 155.69-19.71 152.57-14.81 149.45-19.71 151.09-20.04 151.09-22.99 143.21-22.99 143.21-20.04 145.18-19.71 150.44-11.5 145.18-3.28 143.21-2.96 143.21 0 151.09 0 151.09-2.96ZM163.25-20.04L165.22-19.71 165.22-3.28 163.25-2.96 163.25 0 179.34 0 179.34-5.91 176.39-5.91 176.06-3.61 169.16-3.61 169.16-10.51 174.74-10.51 175.07-8.54 178.03-8.54 178.03-15.44 175.07-15.44 174.74-14.12 169.16-14.12 169.16-19.38 176.06-19.38 176.39-17.41 179.34-17.41 179.34-22.99 163.25-22.99Z" transform="translate(-0.9900000095367432, 22.989999771118164)"></path></g> <!----> <!----> <!----> <!----> <!----> <!----> <!----></g></g> <!----></g></g></g><defs v-gra="od"></defs></svg>