<svg xmlns="http://www.w3.org/2000/svg" xmlns:xlink="http://www.w3.org/1999/xlink" version="1.1" x="0px" y="0px" viewBox="0 0 64 80" style="enable-background:new 0 0 64 64;" xml:space="preserve"><g><path d="M62,55h-7V6c0-2.757-2.243-5-5-5H6C3.243,1,1,3.243,1,6v2c0,0.553,0.447,1,1,1h7v49c0,2.757,2.243,5,5,5h44   c2.757,0,5-2.243,5-5v-2C63,55.447,62.553,55,62,55z M3,6c0-1.654,1.346-3,3-3h40.002C45.373,3.836,45,4.875,45,6v1H3V6z M17,56v2   c0,1.654-1.346,3-3,3s-3-1.346-3-3V9h35c0.553,0,1-0.447,1-1V6c0-1.654,1.346-3,3-3s3,1.346,3,3v49H18C17.447,55,17,55.447,17,56z    M61,58c0,1.654-1.346,3-3,3H17.998C18.627,60.164,19,59.125,19,58v-1h42V58z"/><path d="M22,29c4.963,0,9-4.037,9-9c0-1.168-0.221-2.304-0.655-3.376l-1.854,0.752C28.829,18.208,29,19.091,29,20   c0,3.859-3.141,7-7,7s-7-3.141-7-7s3.141-7,7-7c1.188,0,2.36,0.303,3.39,0.874l0.971-1.748C25.035,11.39,23.527,11,22,11   c-4.963,0-9,4.037-9,9S17.037,29,22,29z"/><path d="M18.707,19.293l-1.414,1.414l4,4C21.481,24.896,21.736,25,22,25c0.039,0,0.078-0.002,0.116-0.007   c0.305-0.036,0.575-0.208,0.735-0.469l8-13l-1.703-1.049l-7.337,11.922L18.707,19.293z"/><rect x="13" y="31" width="2" height="2"/><rect x="17" y="31" width="34" height="2"/><rect x="49" y="35" width="2" height="2"/><rect x="13" y="35" width="34" height="2"/><rect x="13" y="39" width="2" height="2"/><rect x="17" y="39" width="34" height="2"/><rect x="49" y="43" width="2" height="2"/><rect x="13" y="43" width="34" height="2"/><rect x="13" y="47" width="2" height="2"/><rect x="17" y="47" width="34" height="2"/><rect x="49" y="51" width="2" height="2"/><rect x="13" y="51" width="34" height="2"/></g></svg>